# AST/ASF file generated using VICON BodyLanguage
# -----------------------------------------------
:version 1.10
:name VICON
:units
  mass 1.0
  length 0.45
  angle deg
:documentation
   .ast/.asf automatically generated from VICON data using
   VICON BodyBuilder and BodyLanguage model FoxedUp or BRILLIANT.MOD
:root
   order TX TY TZ RX RY RZ
   axis XYZ
   position 0 0 0  
   orientation 0 0 0 
:bonedata
  begin
     id 1 
     name lhipjoint
     direction 0.578396 -0.714046 0.394458 
     length 2.21935 
     axis 0 0 0  XYZ
  end
  begin
     id 2 
     name lfemur
     direction 0.34202 -0.939693 0  
     length 6.39105  
     axis 0 0 20  XYZ
    dof rx ry rz
    limits (-160.0 20.0)
           (-70.0 70.0)
           (-60.0 70.0)
  end
  begin
     id 3 
     name ltibia
     direction 0.34202 -0.939693 0   
     length 6.99037   
     axis 0 0 20   XYZ
    dof rx
    limits (-10.0 170.0)
  end
  begin
     id 4 
     name lfoot
     direction 0.0582372 -0.160005 0.985397   
     length 2.06111   
     axis -90 7.62852e-016 20   XYZ
    dof rx rz
    limits (-45.0 90.0)
           (-70.0 20.0)
  end
  begin
     id 5 
     name ltoes
     direction 1.53556e-011 -4.21875e-011 1   
     length 1.04074   
     axis -90 7.62852e-016 20   XYZ
    dof rx
    limits (-90.0 20.0)
  end
  begin
     id 6 
     name rhipjoint
     direction -0.558179 -0.726269 0.40121   
     length 2.182  
     axis 0 0 0  XYZ 
  end
  begin
     id 7 
     name rfemur
     direction -0.34202 -0.939693 0   
     length 6.51172   
     axis 0 0 -20   XYZ
    dof rx ry rz
    limits (-160.0 20.0)
           (-70.0 70.0)
           (-70.0 60.0)
  end
  begin
     id 8 
     name rtibia
     direction -0.34202 -0.939693 0   
     length 7.02607   
     axis 0 0 -20   XYZ
    dof rx
    limits (-10.0 170.0)
 end
 begin
     id 9 
     name rfoot
     direction -0.0788856 -0.216737 0.973038   
     length 1.96734  
     axis -90 -7.62852e-016 -20   XYZ
    dof rx rz
    limits (-45.0 90.0)
           (-20.0 70.0)
  end
  begin
     id 10 
     name rtoes
     direction -1.53567e-011 -4.21783e-011 1   
     length 0.990825   
     axis -90 -7.62852e-016 -20   XYZ
    dof rx
    limits (-90.0 20.0)
  end
  begin
     id 11 
     name lowerback
     direction 0.00668177 0.999323 -0.0361741   
     length 1.7655   
     axis 0 0 0   XYZ
    dof rx ry rz
    limits (-20.0 45.0)
           (-30.0 30.0)
           (-30.0 30.0)
  end
  begin
     id 12 
     name upperback
     direction -0.00222086 0.99851 0.0545167   
     length 1.74912   
     axis 0 0 0   XYZ
    dof rx ry rz
    limits (-20.0 45.0)
           (-30.0 30.0)
           (-30.0 30.0)
  end
  begin
     id 13 
     name thorax
     direction -0.00733971 0.997496 0.0703443   
     length 1.75715   
     axis 0 0 0   XYZ
    dof rx ry rz
    limits (-20.0 45.0)
           (-30.0 30.0)
           (-30.0 30.0)
  end
  begin
     id 14 
     name lowerneck
     direction 0.0279797 0.994795 0.0979765   
     length 1.46939   
     axis 0 0 0   XYZ
    dof rx ry rz
    limits (-20.0 45.0)
           (-30.0 30.0)
           (-30.0 30.0)
  end
  begin
     id 15 
     name upperneck
     direction 0.00339187 0.976776 -0.214238   
     length 1.48018   
     axis 0 0 0   XYZ
    dof rx ry rz
    limits (-20.0 45.0)
           (-30.0 30.0)
           (-30.0 30.0)
  end
  begin
     id 16
     name head
     direction -0.00263506 0.996603 -0.0823096  
     length 1.4976  
     axis 0 0 0   XYZ
    dof rx ry rz
    limits (-20.0 45.0)
           (-30.0 30.0)
           (-30.0 30.0)
  end
  begin
     id 17 
     name lclavicle
     direction 0.894044 0.44508 -0.0508781  
     length 3.03024  
     axis 0 0 0   XYZ
    dof ry rz
    limits (-20.0 10.0)
           (0.0 20.0)
  end
  begin
     id 18 
     name lhumerus
     direction 1 -4.48961e-011 -2.39475e-018   
     length 4.4661   
     axis 180 -30 -90   XYZ
    dof rx ry rz
    limits (-60.0 90.0)
           (-90.0 90.0)
           (-90.0 90.0)
  end
  begin
     id 19
     name lradius
     direction 1 -4.48961e-011 9.29328e-028   
     length 3.41414   
     axis 180 -30 -90   XYZ
    dof rx
    limits (-10.0 170.0)
  end
  begin
     id 20
     name lwrist
     direction 1 -4.48985e-011 1.53461e-026   
     length 1.70707   
     axis -1.09697e-014 90 90   XYZ
    dof ry
    limits (-180.0 0.0)
 end
  begin
     id 21 
     name lhand
     direction 1 -4.48966e-011 3.06923e-026   
     length 0.328298   
     axis -1.95843e-014 90 90   XYZ
    dof rx rz
    limits (-90.0 90.0)
           (-45.0 45.0)
  end
  begin
     id 22 
     name lfingers
     direction 1 -4.48893e-011 6.13845e-026   
     length 0.264682   
     axis -3.91686e-014 90 90   XYZ
    dof rx
    limits (0.0 90.0)
  end
  begin
     id 23
     name lthumb
     direction 0.707107 -6.34876e-011 0.707107   
     length 0.380032   
     axis -90 45 2.85299e-015   XYZ
    dof rx rz
    limits (-45.0 45.0)
           (-45.0 45.0)
  end
  begin
     id 24 
     name rclavicle
     direction -0.936955 0.347862 -0.0332887   
     length 3.26927  
     axis 0 0 0   XYZ 
    dof ry rz
    limits (-10.0 20.0)
           (-20.0 0.0)
  end
  begin
     id 25 
     name rhumerus
     direction -1 -4.4896e-011 1.78637e-018  
     length 4.40431   
     axis 180 30 90   XYZ
    dof rx ry rz
    limits (-90.0 60.0)
           (-90.0 90.0)
           (-90.0 90.0)
  end
  begin
     id 26 
     name rradius
     direction -1 -4.48955e-011 9.34036e-027   
     length 3.04688   
     axis 180 30 90   XYZ
    dof rx
    limits (-10.0 170.0)
  end
  begin
     id 27 
     name rwrist
     direction -1 -4.49011e-011 1.53461e-026   
     length 1.52344   
     axis -1.09697e-014 -90 -90   XYZ
    dof ry
    limits (-180.0 0.0)
  end
  begin
     id 28
     name rhand
     direction -1 -4.48834e-011 3.06923e-026   
     length 0.500489   
     axis -1.95843e-014 -90 -90   XYZ
    dof rx rz
    limits (-90.0 90.0)
           (-45.0 45.0)
  end
  begin
     id 29
     name rfingers
     direction -1 -4.48967e-011 6.13845e-026   
     length 0.403507   
     axis -3.91686e-014 -90 -90   XYZ
    dof rx
    limits (0.0 90.0)
  end
  begin
     id 30
     name rthumb
     direction -0.707107 -6.34826e-011 0.707107   
     length 0.579358   
     axis -90 -45 -2.85299e-015   XYZ
    dof rx rz
    limits (-45.0 45.0)
           (-45.0 45.0)
  end
:hierarchy
  begin
    root lhipjoint rhipjoint lowerback
    lhipjoint lfemur
    lfemur ltibia
    ltibia lfoot
    lfoot ltoes
    rhipjoint rfemur
    rfemur rtibia
    rtibia rfoot
    rfoot rtoes
    lowerback upperback
    upperback thorax
    thorax lowerneck lclavicle rclavicle
    lowerneck upperneck
    upperneck head
    lclavicle lhumerus
    lhumerus lradius
    lradius lwrist
    lwrist lhand lthumb
    lhand lfingers
    rclavicle rhumerus
    rhumerus rradius
    rradius rwrist
    rwrist rhand rthumb
    rhand rfingers
  end

#!OML:ASF H:\IndianDance\Patient Classification 1\Patient 1\Session 1\dancer.ASF
:FULLY-SPECIFIED
:DEGREES
1085
root 0.231235 14.2287 14.067 -171.963 -7.2526 -174.128
lowerback 12.484 -1.5151 -3.2211
upperback -3.8851 -2.30069 3.56277
thorax -10.9988 -0.760486 6.23183
lowerneck -14.8891 -8.97739 -10.7852
upperneck 15.5039 -17.9021 24.7319
head 10.9847 -7.75952 7.73767
rclavicle 6.11263e-015 3.97569e-015
rhumerus -23.6977 34.1986 -72.5133
rradius 87.6147
rwrist 0.881831
rhand -51.0033 59.742
rfingers 7.12502
rthumb -23.5518 391.164
lclavicle 6.11263e-015 3.97569e-015
lhumerus 51.3205 -64.619 7.87716
lradius 82.9808
lwrist -12.6267
lhand -57.9134 34.8713
lfingers 7.12502
lthumb -30.1633 -297.571
rfemur -402.722 -25.6857 391.702
rtibia 67.1497
rfoot -20.765 3.32598
rtoes -0.336709
lfemur -45.7196 29.1512 -17.4003
ltibia 74.1952
lfoot -13.7245 -3.52505
ltoes -8.69601
1086
root 0.227148 14.2014 14.0799 -171.95 -7.00262 -173.994
lowerback 12.4333 -1.54725 -3.18237
upperback -3.85365 -2.33769 3.54165
thorax -10.9304 -0.784798 6.18879
lowerneck -14.7711 -11.6578 -10.3177
upperneck 16.7621 -17.5555 23.771
head 11.2313 -5.89363 7.70485
rclavicle 8.15017e-015 2.0276e-014
rhumerus -23.7713 33.8064 -72.7701
rradius 88.3191
rwrist -0.270025
rhand -50.8495 59.15
rfingers 7.12502
rthumb -23.4042 390.553
lclavicle 8.15017e-015 2.0276e-014
lhumerus 51.0656 -65.004 8.02665
lradius 83.0108
lwrist -13.0355
lhand -58.0263 34.1903
lfingers 7.12502
lthumb -30.2709 -298.272
rfemur -402.745 -25.2539 391.794
rtibia 67.0303
rfoot -20.9232 3.19645
rtoes -0.227948
lfemur -46.462 29.8889 -17.0552
ltibia 75.1746
lfoot -12.728 -4.92376
ltoes -8.41724
1087
root 0.220899 14.2074 14.0903 -171.935 -6.66199 -173.894
lowerback 12.3615 -1.56068 -3.18218
upperback -3.83239 -2.35672 3.49884
thorax -10.8627 -0.798098 6.13932
lowerneck -14.5361 -11.7567 -10.51
upperneck 16.7383 -17.6764 23.7201
head 11.2112 -5.99567 7.69683
rclavicle 7.97623e-015 3.51849e-014
rhumerus -23.7748 33.4473 -72.9268
rradius 89.0563
rwrist -1.39254
rhand -50.8143 58.5167
rfingers 7.12502
rthumb -23.3704 389.916
lclavicle 7.97623e-015 3.51849e-014
lhumerus 50.5086 -65.3319 8.35938
lradius 83.1369
lwrist -13.4831
lhand -58.1396 33.4726
lfingers 7.12502
lthumb -30.3791 -299.009
rfemur -402.631 -24.8376 391.819
rtibia 66.8047
rfoot -20.995 3.18138
rtoes -0.339678
lfemur -46.8966 30.6079 -16.6601
ltibia 75.868
lfoot -11.8333 -6.27713
ltoes -8.73134
1088
root 0.212054 14.2167 14.0993 -171.929 -6.26115 -173.847
lowerback 12.2617 -1.55812 -3.24165
upperback -3.80844 -2.36422 3.43524
thorax -10.7758 -0.802869 6.09677
lowerneck -14.3153 -11.842 -10.6721
upperneck 16.7452 -17.7835 23.6481
head 11.1966 -6.08748 7.67972
rclavicle 1.82633e-014 -3.49861e-014
rhumerus -23.6805 33.1057 -72.9162
rradius 89.8321
rwrist -2.51316
rhand -50.7805 57.8306
rfingers 7.12502
rthumb -23.3381 389.225
lclavicle 1.82633e-014 -3.49861e-014
lhumerus 49.7124 -65.5951 8.83369
lradius 83.3524
lwrist -13.9572
lhand -58.2498 32.7803
lfingers 7.12502
lthumb -30.4841 -299.721
rfemur -402.506 -24.471 391.761
rtibia 66.5969
rfoot -21.0083 3.28678
rtoes -0.459022
lfemur -47.1445 31.2513 -16.2211
ltibia 76.4063
lfoot -11.134 -7.56017
ltoes -9.52109
1089
root 0.200715 14.2295 14.1068 -171.937 -5.83546 -173.856
lowerback 12.1903 -1.55153 -3.35686
upperback -3.815 -2.37713 3.35035
thorax -10.7382 -0.804389 6.06716
lowerneck -14.1091 -11.9171 -10.7972
upperneck 16.8218 -17.8849 23.5353
head 11.2001 -6.17078 7.64513
rclavicle 9.59136e-015 -1.07344e-014
rhumerus -23.5419 32.7956 -72.7418
rradius 90.6525
rwrist -3.64885
rhand -50.776 57.106
rfingers 7.12502
rthumb -23.3338 388.5
lclavicle 9.59136e-015 -1.07344e-014
lhumerus 48.6596 -65.8525 9.47347
lradius 83.641
lwrist -14.439
lhand -58.3536 32.0608
lfingers 7.12502
lthumb -30.5831 -300.459
rfemur -402.332 -24.1849 391.627
rtibia 66.3101
rfoot -20.949 3.47428
rtoes -0.638234
lfemur -47.1701 31.7662 -15.7393
ltibia 76.7108
lfoot -10.6759 -8.71863
ltoes -10.7624
1090
root 0.187001 14.2456 14.1126 -171.962 -5.41247 -173.918
lowerback 12.1085 -1.54165 -3.53715
upperback -3.82748 -2.39617 3.25665
thorax -10.6985 -0.804539 6.06602
lowerneck -13.9235 -11.9898 -10.8937
upperneck 16.9408 -17.9868 23.3858
head 11.2154 -6.25103 7.59286
rclavicle 2.3382e-014 3.57812e-015
rhumerus -23.3225 32.467 -72.3906
rradius 91.4901
rwrist -4.77902
rhand -50.7723 56.3565
rfingers 7.12502
rthumb -23.3302 387.75
lclavicle 2.3382e-014 3.57812e-015
lhumerus 47.4382 -66.0706 10.2247
lradius 83.989
lwrist -14.9085
lhand -58.4502 31.2851
lfingers 7.12502
lthumb -30.6752 -301.252
rfemur -402.106 -23.9993 391.433
rtibia 65.9764
rfoot -20.8969 3.65932
rtoes -1.08523
lfemur -46.9732 32.1112 -15.2112
ltibia 76.8181
lfoot -10.4926 -9.72697
ltoes -11.6733
1091
root 0.171062 14.2654 14.1165 -172.003 -5.01114 -174.014
lowerback 12.0102 -1.5392 -3.75729
upperback -3.84419 -2.43137 3.15768
thorax -10.6505 -0.810229 6.08437
lowerneck -13.7606 -12.0565 -10.9565
upperneck 17.0938 -18.0844 23.2084
head 11.2395 -6.32501 7.52598
rclavicle -7.23079e-015 -5.96354e-015
rhumerus -23.0132 32.1031 -71.8812
rradius 92.3314
rwrist -5.90533
rhand -50.7742 55.5869
rfingers 7.12502
rthumb -23.332 386.981
lclavicle -7.23079e-015 -5.96354e-015
lhumerus 46.0671 -66.2519 11.064
lradius 84.3865
lwrist -15.354
lhand -58.564 30.5876
lfingers 7.12502
lthumb -30.7838 -301.97
rfemur -401.82 -23.9019 391.203
rtibia 65.574
rfoot -20.8566 3.84261
rtoes -1.56136
lfemur -46.5603 32.2684 -14.6312
ltibia 76.7242
lfoot -10.597 -10.4886
ltoes -12.2708
1092
root 0.152833 14.289 14.1186 -172.05 -4.6483 -174.127
lowerback 11.8837 -1.54829 -3.98986
upperback -3.86468 -2.48312 3.06083
thorax -10.5873 -0.82386 6.11395
lowerneck -13.6185 -12.1232 -11.0038
upperneck 17.2671 -18.183 23.0112
head 11.2712 -6.39713 7.44895
rclavicle -2.20403e-014 -3.57812e-015
rhumerus -22.6145 31.6805 -71.2226
rradius 93.158
rwrist -7.01566
rhand -50.7955 54.799
rfingers 7.12502
rthumb -23.3524 386.196
lclavicle -2.20403e-014 -3.57812e-015
lhumerus 44.5917 -66.3912 11.9448
lradius 84.8349
lwrist -15.7762
lhand -58.685 29.9027
lfingers 7.12502
lthumb -30.8991 -302.677
rfemur -401.481 -23.887 390.963
rtibia 65.0897
rfoot -20.8275 3.99511
rtoes -2.04975
lfemur -45.9586 32.2237 -14
ltibia 76.4373
lfoot -10.9381 -10.9337
ltoes -12.3651
1093
root 0.132165 14.3164 14.1192 -172.098 -4.33084 -174.239
lowerback 11.733 -1.57265 -4.21028
upperback -3.89344 -2.5524 2.97096
thorax -10.5166 -0.847194 6.14659
lowerneck -13.4901 -12.1907 -11.0423
upperneck 17.4504 -18.2817 22.7982
head 11.3063 -6.46866 7.36416
rclavicle 4.59193e-014 -5.56597e-015
rhumerus -22.1306 31.1912 -70.4188
rradius 93.9656
rwrist -8.13354
rhand -50.8192 53.9491
rfingers 7.12502
rthumb -23.3752 385.349
lclavicle 4.59193e-014 -5.56597e-015
lhumerus 43.0126 -66.5003 12.8788
lradius 85.3227
lwrist -16.1893
lhand -58.8028 29.2304
lfingers 7.12502
lthumb -31.0114 -303.37
rfemur -401.097 -23.9405 390.735
rtibia 64.5197
rfoot -20.8001 4.12787
rtoes -2.32618
lfemur -45.1963 31.974 -13.3193
ltibia 75.9714
lfoot -11.4191 -11.0013
ltoes -11.7678
1094
root 0.109128 14.3473 14.1187 -172.142 -4.0537 -174.332
lowerback 11.557 -1.61587 -4.39125
upperback -3.92915 -2.63964 2.88856
thorax -10.4372 -0.882443 6.16699
lowerneck -13.3751 -12.2563 -11.0742
upperneck 17.6293 -18.3759 22.5804
head 11.3402 -6.53757 7.27662
rclavicle 1.50331e-014 -2.34566e-014
rhumerus -21.5716 30.6295 -69.5216
rradius 94.741
rwrist -9.28292
rhand -50.8655 53.0288
rfingers 7.12502
rthumb -23.4196 384.434
lclavicle 1.50331e-014 -2.34566e-014
lhumerus 41.3363 -66.5769 13.84
lradius 85.8587
lwrist -16.581
lhand -58.9219 28.6559
lfingers 7.12502
lthumb -31.1249 -303.966
rfemur -400.679 -24.0251 390.538
rtibia 63.8677
rfoot -20.7602 4.23141
rtoes -2.31492
lfemur -44.3008 31.5361 -12.5874
ltibia 75.3432
lfoot -12.0179 -10.6392
ltoes -10.7631
1095
root 0.0832989 14.3813 14.1175 -172.176 -3.81448 -174.394
lowerback 11.3612 -1.67389 -4.51408
upperback -3.9757 -2.73661 2.81953
thorax -10.3581 -0.926325 6.16978
lowerneck -13.2558 -12.3229 -11.1165
upperneck 17.7829 -18.4658 22.3633
head 11.3641 -6.60794 7.1906
rclavicle -1.78409e-014 1.86858e-014
rhumerus -20.9537 29.984 -68.5373
rradius 95.4876
rwrist -10.4827
rhand -50.9671 51.9327
rfingers 7.12502
rthumb -23.517 383.35
lclavicle -1.78409e-014 1.86858e-014
lhumerus 39.5962 -66.623 14.7902
lradius 86.4548
lwrist -16.9582
lhand -59.0311 28.2022
lfingers 7.12502
lthumb -31.229 -304.44
rfemur -400.241 -24.1214 390.382
rtibia 63.1418
rfoot -20.6899 4.29247
rtoes -2.15584
lfemur -43.3024 30.9182 -11.8122
ltibia 74.571
lfoot -12.703 -9.82319
ltoes -9.6054
1096
root 0.0547843 14.4178 14.1162 -172.205 -3.59415 -174.414
lowerback 11.1574 -1.73809 -4.56958
upperback -4.03019 -2.83082 2.76522
thorax -10.2854 -0.973079 6.14935
lowerneck -13.1236 -12.3914 -11.1724
upperneck 17.8932 -18.5514 22.1524
head 11.3708 -6.68144 7.10832
rclavicle -3.23522e-014 -9.93923e-015
rhumerus -20.2813 29.2494 -67.4701
rradius 96.2072
rwrist -11.7893
rhand -51.039 50.6595
rfingers 7.12502
rthumb -23.586 382.086
lclavicle -3.23522e-014 -9.93923e-015
lhumerus 37.815 -66.6514 15.7407
lradius 87.0857
lwrist -17.3143
lhand -59.1294 27.8777
lfingers 7.12502
lthumb -31.3226 -304.783
rfemur -399.782 -24.1984 390.271
rtibia 62.3519
rfoot -20.5816 4.31222
rtoes -1.89416
lfemur -42.2099 30.1477 -10.9851
ltibia 73.6705
lfoot -13.4249 -8.63447
ltoes -8.41805
1097
root 0.0232654 14.4562 14.1152 -172.234 -3.37664 -174.376
lowerback 10.9577 -1.80308 -4.54559
upperback -4.09269 -2.91373 2.73059
thorax -10.228 -1.0188 6.1035
lowerneck -12.9788 -12.4623 -11.2349
upperneck 17.9608 -18.6329 21.9363
head 11.3581 -6.75905 7.024
rclavicle -1.72197e-014 3.97569e-015
rhumerus -19.5578 28.432 -66.3216
rradius 96.9009
rwrist -13.2427
rhand -51.1014 49.1897
rfingers 7.12502
rthumb -23.6459 380.624
lclavicle -1.72197e-014 3.97569e-015
lhumerus 35.9987 -66.6617 16.6691
lradius 87.7701
lwrist -17.6135
lhand -59.1876 27.5787
lfingers 7.12502
lthumb -31.3781 -305.093
rfemur -399.3 -24.2266 390.214
rtibia 61.5078
rfoot -20.4324 4.25659
rtoes -1.80025
lfemur -41.0359 29.2448 -10.1008
ltibia 72.6539
lfoot -14.132 -7.20469
ltoes -7.34446
1098
root -0.0114265 14.4965 14.1148 -172.268 -3.14076 -174.281
lowerback 10.7689 -1.86135 -4.44747
upperback -4.15699 -2.97656 2.71349
thorax -10.1841 -1.059 6.03158
lowerneck -12.7985 -12.5254 -11.2931
upperneck 17.9472 -18.695 21.7299
head 11.3051 -6.8355 6.94413
rclavicle 3.8763e-015 -1.31198e-014
rhumerus -18.7796 27.5294 -65.1044
rradius 97.563
rwrist -14.8406
rhand -51.1893 47.4793
rfingers 7.12502
rthumb -23.7301 378.924
lclavicle 3.8763e-015 -1.31198e-014
lhumerus 34.1704 -66.6545 17.5545
lradius 88.4974
lwrist -17.8614
lhand -59.2331 27.4138
lfingers 7.12502
lthumb -31.4215 -305.266
rfemur -398.791 -24.1787 390.197
rtibia 60.62
rfoot -20.2262 4.1666
rtoes -1.72418
lfemur -39.7805 28.2297 -9.16835
ltibia 71.5268
lfoot -14.7726 -5.69291
ltoes -6.3185
